<svg id="圖層_1" data-name="圖層 1" xmlns="http://www.w3.org/2000/svg" xmlns:xlink="http://www.w3.org/1999/xlink" viewBox="0 0 891 891"><defs><style>.cls-1{fill:none;}.cls-2{clip-path:url(#clip-path);}.cls-3{fill:#f2edde;}</style><clipPath id="clip-path"><rect class="cls-1" x="17.71" y="62.55" width="855.57" height="765.9"/></clipPath></defs><title>工作區域 2</title><g class="cls-2"><path class="cls-3" d="M662.23,611.72C381.86,779,131.15,605.89,82.9,555.39,209.38,654.28,408.34,685,575,614.62,673.69,567.7,726.28,504.15,751,419.7c24.69-93.83-4.68-183-97.26-244-86.39-56.3-197.48-75.07-308.56-46.92-86.4,28.15-154.29,79.76-179,154.82-30.85,79.77,24.69,159.52,117.26,201.75C376,518.22,505.61,504.14,555,429.08c30.85-51.61,18.51-117.3-49.37-150.14-30.86-14.08-72.47-17.06-94.79,1.52-30.73,25.59,16.5,3.15,51.27,19.25,22,10.17,48.88,27.63,43.52,73.07-6.74,57.24-98.74,84.46-160.46,65.68C277.27,415,246.4,363.4,252.59,311.78c12.34-56.3,67.88-98.52,135.77-112.6,117.25-23.46,222.16,37.54,259.19,122C678.41,400.93,629,476,542.64,522.91,468.59,560.45,382.18,569.83,302,546.37,184.7,513.53,104.48,433.78,98.3,335.25,92.13,208.57,203.2,114.74,357.49,81.9c172.8-28.15,345.6,37.53,419.65,159.51C845,368.09,808.65,524.36,662.23,611.72ZM445.5,61.94c-236.26,0-427.79,171.59-427.79,383.25S209.24,828.45,445.5,828.45,873.28,656.87,873.28,445.19,681.76,61.94,445.5,61.94Z"/></g></svg>