<svg id="圖層_1" data-name="圖層 1" xmlns="http://www.w3.org/2000/svg" xmlns:xlink="http://www.w3.org/1999/xlink" viewBox="0 0 1522.55 625.95"><defs><style>.cls-1{fill:none;}.cls-2{clip-path:url(#clip-path);}.cls-3{fill:#f2edde;}</style><clipPath id="clip-path"><rect class="cls-1" x="6.33" y="7.17" width="1510.21" height="616.78"/></clipPath></defs><title>mys-name-light</title><g class="cls-2"><path class="cls-3" d="M1202.16,146.66q0-61.72,53.39-102.61,53.22-40.87,131.94-40.88,60.91,0,94.91,24.85,34.15,24.86,34.15,71.34,0,36.08-18.12,58.52-18,22.44-47.77,22.45a50.91,50.91,0,0,1-20.36-4,43.82,43.82,0,0,1-16.52-12.83q16-9.62,26.14-28.86a86.27,86.27,0,0,0,9.94-40.08q0-25.65-15.23-39.6-15.08-14.1-44.09-14.1-34.3,0-54,19.23t-19.72,53.71A104.5,104.5,0,0,0,1331.38,167q14.26,25.32,62.36,67.81,63.33,55.32,83.37,95.87t20,90.11q0,91.38-63.33,145.88T1272.06,621.2q-78.72,0-124.25-36.07Q1102,549.07,1102,483.33q0-57.72,34.47-94.59,34.63-36.87,83.53-36.87,30.3,0,49.54,13.95,19.23,14.1,20.84,38.95-41.68,0-67.66,20-26.13,20-26.13,55.31,0,33.67,20.84,55.31t56.11,21.65q41.85,0,67.34-28.86,25.65-28.86,25.65-77.76a162.44,162.44,0,0,0-16.83-72.14q-16.85-34.47-69.58-92.18-48.11-51.3-63-80.64Q1202.16,176.31,1202.16,146.66ZM1090.1,7.18H1143L987.49,357.48l-52.9,246.89H806.33l52.91-246.89-77-300.6q-57.71,20.83-88.65,66.85-30.79,46.17-30.79,111.1a158.87,158.87,0,0,0,1.93,26.46,91.53,91.53,0,0,0,6.89,21.64,33.31,33.31,0,0,1,1.93,4.33,6.26,6.26,0,0,1,.48,2.08q-44.9,0-65.41-18.91T588.3,211.59q0-40.08,26.77-80.16,26.94-40.08,75-72.15a364,364,0,0,1,87.7-41.36q47-14.75,91.86-14.75,5.61,0,12.34.32,6.9.48,19.72,1.28l69.74,287ZM305.33,436.84,481.68,14.39H597.11L513,604.37H397.52l51.3-359.92L298.12,604.37H188.3l16-361.52L70.46,604.37H6.33L209.94,53.67Q148.21,74.52,115.35,121T82.49,234a170.84,170.84,0,0,0,1.92,27.58,78.19,78.19,0,0,0,6.89,21.32q1.61,3.21,2.09,4.33a9.18,9.18,0,0,1,.32,2.08q-43.29,0-64.45-18.11-21.31-18-21.32-54.83,0-38.47,23.73-78.24Q55.24,98.56,96.92,65.7a307.34,307.34,0,0,1,81-46.18q43.27-16.35,85-16.35A180.57,180.57,0,0,1,293.79,5.9a165.86,165.86,0,0,1,30,8.49Z"/></g></svg>