<svg width="65" height="41" viewBox="0 0 65 41" fill="none" xmlns="http://www.w3.org/2000/svg">
<path d="M1.48 19.93C1.31467 19.93 1.31467 19.744 1.48 19.372C1.68667 19 1.87267 18.5867 2.038 18.132C2.24467 17.6773 2.45133 17.1813 2.658 16.644C3.07133 15.652 3.526 14.536 4.022 13.296C4.518 12.056 4.99333 10.8573 5.448 9.7C5.90267 8.50133 6.29533 7.48867 6.626 6.662C6.998 5.794 7.246 5.236 7.37 4.988C6.79133 5.608 6.08867 6.39333 5.262 7.344C4.47667 8.25333 3.73267 9.142 3.03 10.01C2.32733 10.878 1.79 11.56 1.418 12.056C1.294 12.2213 1.19067 12.304 1.108 12.304C1.02533 12.304 0.984 12.2007 0.984 11.994C0.984 11.6633 1.08733 11.3533 1.294 11.064C2.07933 10.072 2.94733 8.956 3.898 7.716C4.89 6.476 5.77867 5.33933 6.564 4.306C7.34933 3.23133 7.84533 2.52867 8.052 2.198C8.50667 2.11533 9.168 1.99133 10.036 1.826C10.9453 1.66067 11.5653 1.43333 11.896 1.144C12.02 1.02 12.144 0.957999 12.268 0.957999C12.3507 0.957999 12.392 1.04067 12.392 1.206C12.4333 1.33 12.392 1.47467 12.268 1.64C12.02 1.92933 11.586 2.61133 10.966 3.686C10.3873 4.71933 9.74667 5.87667 9.044 7.158C8.38267 8.43933 7.76267 9.59667 7.184 10.63C7.84533 9.84467 8.486 9.10067 9.106 8.398C9.76733 7.69533 10.222 7.19933 10.47 6.91C10.966 6.414 11.648 5.794 12.516 5.05C13.384 4.306 14.2933 3.624 15.244 3.004C16.1947 2.384 17.0213 2.03267 17.724 1.95C17.8893 1.90867 18.034 1.888 18.158 1.888C18.282 1.888 18.406 1.888 18.53 1.888C19.3153 1.888 19.708 2.17733 19.708 2.756C19.708 3.004 19.646 3.29333 19.522 3.624C19.398 3.95467 19.2327 4.28533 19.026 4.616C18.778 5.112 18.3647 5.89733 17.786 6.972C17.2073 8.00533 16.6907 8.956 16.236 9.824L19.15 6.91C19.646 6.414 20.328 5.794 21.196 5.05C22.064 4.306 22.9733 3.624 23.924 3.004C24.8747 2.384 25.7013 2.03267 26.404 1.95C26.5693 1.90867 26.714 1.888 26.838 1.888C27.0033 1.888 27.1273 1.888 27.21 1.888C28.1193 1.888 28.574 2.21867 28.574 2.88C28.574 3.376 28.3053 4.03733 27.768 4.864C27.4787 5.31867 27.024 6.08333 26.404 7.158C25.784 8.23267 25.1433 9.41067 24.482 10.692C23.862 11.932 23.3247 13.0893 22.87 14.164C22.4153 15.2387 22.188 16.024 22.188 16.52C22.188 17.0987 22.4773 17.388 23.056 17.388C23.5933 17.388 24.2753 17.078 25.102 16.458C25.97 15.7967 26.838 15.0113 27.706 14.102C28.6153 13.1927 29.4007 12.3247 30.062 11.498C30.3513 11.1673 30.62 10.8367 30.868 10.506C31.1573 10.134 31.3227 9.92733 31.364 9.886C31.4467 9.96867 31.488 10.1133 31.488 10.32C31.488 10.6093 31.3847 10.8987 31.178 11.188C31.0127 11.436 30.8473 11.6633 30.682 11.87C29.8967 12.9033 28.9873 13.978 27.954 15.094C26.962 16.21 25.8667 17.1607 24.668 17.946C23.4693 18.69 22.188 19.124 20.824 19.248C20.4107 19.2893 19.9973 19.2067 19.584 19C19.1707 18.7933 18.964 18.4627 18.964 18.008C18.964 17.4293 19.1087 16.7473 19.398 15.962C19.7287 15.1767 20.08 14.3913 20.452 13.606C20.8653 12.8207 21.1753 12.18 21.382 11.684C22.126 10.2373 22.808 8.87333 23.428 7.592C24.048 6.31067 24.482 5.40133 24.73 4.864C24.854 4.616 24.916 4.40933 24.916 4.244C24.916 3.95467 24.6887 3.934 24.234 4.182C23.7793 4.43 23.2213 4.802 22.56 5.298C21.94 5.794 21.3613 6.29 20.824 6.786C20.2867 7.24067 19.9353 7.55067 19.77 7.716C19.0673 8.41867 18.22 9.36933 17.228 10.568C16.2773 11.7667 15.3887 13.0273 14.562 14.35C13.7353 15.6313 13.1567 16.83 12.826 17.946C12.4127 18.318 12.02 18.504 11.648 18.504C11.3587 18.504 11.1107 18.4007 10.904 18.194C10.7387 17.9873 10.656 17.7393 10.656 17.45C10.656 16.6233 10.904 15.652 11.4 14.536C11.9373 13.3787 12.3713 12.428 12.702 11.684C13.446 10.2373 14.128 8.87333 14.748 7.592C15.368 6.31067 15.802 5.40133 16.05 4.864C16.174 4.616 16.236 4.40933 16.236 4.244C16.236 3.95467 16.0087 3.934 15.554 4.182C15.0993 4.43 14.5413 4.802 13.88 5.298C13.26 5.794 12.6813 6.29 12.144 6.786C11.6067 7.24067 11.2553 7.55067 11.09 7.716C10.098 8.74933 9.168 9.80333 8.3 10.878C7.47333 11.9527 6.77067 13.11 6.192 14.35C5.86133 15.094 5.51 15.9207 5.138 16.83C4.766 17.7393 4.456 18.504 4.208 19.124C3.67067 19.1653 3.13333 19.31 2.596 19.558C2.05867 19.806 1.68667 19.93 1.48 19.93ZM23.845 40.7C22.2744 40.7 20.7657 40.328 19.319 39.584C17.831 38.8813 16.7357 37.786 16.033 36.298C15.785 35.7607 15.6197 35.182 15.537 34.562C15.4544 33.9833 15.413 33.4047 15.413 32.826V32.144C15.413 31.8133 15.4544 31.5033 15.537 31.214C15.6197 30.966 15.8264 30.842 16.157 30.842C16.2397 30.842 16.281 30.8833 16.281 30.966C16.281 31.214 16.2604 31.462 16.219 31.71C16.1777 31.958 16.157 32.2267 16.157 32.516C16.157 34.4173 16.777 35.864 18.017 36.856C19.2157 37.848 20.7244 38.344 22.543 38.344C23.287 38.344 24.0517 38.2613 24.837 38.096C25.6224 37.9307 26.3664 37.7033 27.069 37.414C29.673 36.298 31.9257 34.7067 33.827 32.64C35.7697 30.6147 37.4644 28.3207 38.911 25.758C40.3577 23.1953 41.6597 20.5913 42.817 17.946C43.4784 16.3753 44.057 14.846 44.553 13.358C45.0904 11.87 45.5657 10.5267 45.979 9.328C45.5657 9.90667 45.0284 10.6093 44.367 11.436C43.7057 12.2627 43.0444 13.0687 42.383 13.854C41.7217 14.598 41.143 15.1973 40.647 15.652C39.6137 16.644 38.4977 17.4913 37.299 18.194C36.1417 18.8553 34.943 19.186 33.703 19.186C33.2897 19.186 32.9384 19.1033 32.649 18.938C32.3597 18.7727 32.215 18.4627 32.215 18.008C32.215 17.4293 32.3597 16.7473 32.649 15.962C32.9797 15.1767 33.331 14.3913 33.703 13.606C34.075 12.8207 34.385 12.18 34.633 11.684C35.129 10.7333 35.6044 9.78267 36.059 8.832C36.5137 7.88133 36.9064 7.07533 37.237 6.414C37.5677 5.794 37.733 5.38067 37.733 5.174C37.733 4.84333 37.485 4.84333 36.989 5.174C36.5344 5.50467 36.1004 5.83533 35.687 6.166C34.7777 7.034 33.827 8.06733 32.835 9.266C31.843 10.4233 31.0784 11.3533 30.541 12.056C30.417 12.2213 30.3137 12.304 30.231 12.304C30.1484 12.304 30.107 12.2007 30.107 11.994C30.107 11.6633 30.2104 11.3533 30.417 11.064C30.9957 10.2373 31.6777 9.328 32.463 8.336C33.2484 7.344 34.0544 6.39333 34.881 5.484C35.6664 4.65733 36.4724 3.85133 37.299 3.066C38.1257 2.28067 39.1797 1.888 40.461 1.888C41.329 1.888 41.763 2.21867 41.763 2.88C41.763 3.45867 41.515 4.12 41.019 4.864C40.7297 5.31867 40.275 6.08333 39.655 7.158C39.035 8.23267 38.3944 9.41067 37.733 10.692C37.113 11.932 36.5757 13.0893 36.121 14.164C35.6664 15.2387 35.439 16.024 35.439 16.52C35.439 17.0987 35.7284 17.388 36.307 17.388C36.7617 17.388 37.3197 17.1607 37.981 16.706C38.6424 16.21 39.3244 15.6313 40.027 14.97C41.2257 13.8127 42.321 12.5313 43.313 11.126C44.3464 9.72067 45.235 8.37733 45.979 7.096C46.103 6.88933 46.3097 6.51733 46.599 5.98C46.9297 5.44267 47.2604 4.926 47.591 4.43C47.963 3.934 48.2524 3.64467 48.459 3.562C48.6657 3.47933 49.079 3.252 49.699 2.88C50.319 2.508 50.939 2.26 51.559 2.136C52.1377 2.012 52.5717 1.95 52.861 1.95C53.3157 1.95 53.543 2.074 53.543 2.322C53.543 2.65267 53.357 2.818 52.985 2.818C52.5304 2.818 52.117 2.942 51.745 3.19C51.373 3.39667 51.0837 3.66533 50.877 3.996C50.505 4.53333 49.9677 5.50467 49.265 6.91C48.6037 8.31533 47.8597 9.948 47.033 11.808C46.2477 13.6267 45.4624 15.4867 44.677 17.388C43.8917 19.248 43.1684 20.9633 42.507 22.534C41.515 24.89 40.3784 27.184 39.097 29.416C37.8157 31.6893 36.307 33.7147 34.571 35.492C32.8764 37.3107 30.851 38.7367 28.495 39.77C27.0897 40.39 25.5397 40.7 23.845 40.7ZM55.2635 19.992C54.5195 19.992 53.7342 19.8887 52.9075 19.682C52.0809 19.4753 51.3369 19.1447 50.6755 18.69C50.0555 18.194 49.6422 17.5327 49.4355 16.706C49.3942 16.582 49.3735 16.396 49.3735 16.148C49.3735 15.5693 49.4975 14.9287 49.7455 14.226C50.0349 13.5233 50.3862 13.0273 50.7995 12.738C50.9649 12.6553 51.0889 12.6553 51.1715 12.738C51.2955 12.8207 51.3162 12.9033 51.2335 12.986C51.1922 13.11 51.1302 13.2753 51.0475 13.482C50.9649 13.6473 50.9029 13.8333 50.8615 14.04C50.7375 15.1147 50.9649 16.0653 51.5435 16.892C51.7915 17.2227 52.0809 17.5327 52.4115 17.822C52.7835 18.1113 53.1349 18.3593 53.4655 18.566C53.7549 18.7313 54.1062 18.8553 54.5195 18.938C54.9329 18.9793 55.3462 19 55.7595 19C56.4209 19 57.0615 18.9173 57.6815 18.752C58.3015 18.5867 58.7562 18.318 59.0455 17.946C59.5829 17.2847 59.8515 16.5407 59.8515 15.714C59.8515 15.094 59.6862 14.4327 59.3555 13.73C59.0249 13.0273 58.5082 12.2833 57.8055 11.498C57.3509 11.002 56.9169 10.4647 56.5035 9.886C56.0902 9.30733 55.8215 8.68733 55.6975 8.026C55.6562 7.902 55.6149 7.778 55.5735 7.654C55.5735 7.53 55.5735 7.406 55.5735 7.282C55.0362 8.06733 54.4782 8.81133 53.8995 9.514C53.3622 10.1753 52.8869 10.754 52.4735 11.25C52.3082 11.498 52.1635 11.622 52.0395 11.622C51.9569 11.622 51.9155 11.5393 51.9155 11.374C51.9155 11.002 52.0809 10.6093 52.4115 10.196C52.7422 9.824 53.1142 9.36933 53.5275 8.832C53.9409 8.25333 54.2715 7.79867 54.5195 7.468C55.2222 6.43467 55.7389 5.62867 56.0695 5.05C56.4415 4.43 56.8342 3.872 57.2475 3.376C57.7022 2.83867 58.2602 2.40467 58.9215 2.074C59.6242 1.74333 60.3475 1.578 61.0915 1.578C61.9595 1.578 62.7449 1.72267 63.4475 2.012C64.1915 2.26 64.5842 2.92133 64.6255 3.996C64.6255 4.492 64.5222 5.00867 64.3155 5.546C64.1502 6.042 63.9642 6.51733 63.7575 6.972C63.6335 7.22 63.4475 7.406 63.1995 7.53C62.9929 7.61267 62.8895 7.57133 62.8895 7.406C62.8895 7.24067 62.9102 7.05467 62.9515 6.848C62.9929 6.64133 63.0135 6.45533 63.0135 6.29C63.0135 5.58733 62.8895 4.96733 62.6415 4.43C62.4349 3.85133 62.1249 3.438 61.7115 3.19C61.2982 2.90067 60.8642 2.756 60.4095 2.756C59.7482 2.756 59.1075 3.02467 58.4875 3.562C57.8675 4.058 57.5575 4.71933 57.5575 5.546C57.5575 5.62867 57.5575 5.732 57.5575 5.856C57.5575 5.98 57.5782 6.08333 57.6195 6.166C57.7849 6.82733 58.2809 7.57133 59.1075 8.398C59.9342 9.22467 60.5749 9.948 61.0295 10.568C61.8149 11.6427 62.2075 12.738 62.2075 13.854C62.2075 14.97 61.8769 16.0033 61.2155 16.954C60.5955 17.8633 59.7482 18.5867 58.6735 19.124C57.6402 19.7027 56.5035 19.992 55.2635 19.992Z" fill="#F2EDDE"/>
</svg>
